<svg xmlns="http://www.w3.org/2000/svg" viewBox="0 0 614.07 614.07"><defs><style>.a{fill:#a8a8a8;opacity:0;}.b{opacity:0.3;}</style></defs><title>ph</title><rect class="a" width="614.07" height="614.07"/><g class="b"><path d="M140.56,300.94c-10.4-12.43-10.09-26.28-8.3-40.41a19.74,19.74,0,0,0,.22-4.48c-.51-4.88.85-7.67,6.48-7.13,2.38.23,4.7-.61,1.08-3.68,5.39-.59,10.62.39,15.9-1.7-4-1.12-7.62-2-11.14-3.22a10.83,10.83,0,0,1-3.59-2.62c-.82-.78-1.8-2-1.08-3.07.89-1.33,2.07-.06,3.08.28,5.58,1.9,5.53.48,8.74-4.36,6.22-9.38,2-19.71,4.45-29.31a35.08,35.08,0,0,0,.5-15.94c5.93,4.66,7.32.57,10.2-2.92,6.22-7.55,9.18-17.7,18.25-23,2.21-1.29,2.55-3.82,3.25-6,5.77-17.89,13.19-34.88,25.78-49.23,6.46-7.37,14.44-12.8,22.41-18.22,9.37-6.38,19-12.47,29.73-16.29,13-4.6,25.87-5.84,38.79.57,6.86,3.4,14,4.56,21.77,2a30.45,30.45,0,0,1,23.4,1.6c15.66,7.76,31.46,15.29,43.83,28.25,9.84,10.31,16.42,22.58,22.19,35.38,6.91,15.34,13.59,30.78,20.41,46.16,1.15,2.59,2.45,5.11,3.78,7.61,4,7.57,6.12,7.94,12,2.14.51,1.94-.6,3.58-.73,5.34-.23,3.13.35,5.71,4.15,6.13.65.07,1.69.07,1.86.42,2.38,5,4.7,2.85,6.77-.23,2.13,1.48,1.59,3.47,1.85,5.2.17,1.17.22,2.48,1.51,2.93,1.53.54,2.56-.57,3.31-1.66,1.39-2,2.61-4.13,4.64-7.38a25.8,25.8,0,0,1-2.28,14c-.45,1-1.61,2.06-.7,3.17s2.48.78,3.77.54c2.48-.46,3.44-2.38,4.11-4.54,1.06-3.44.52-6.9.56-10.46,2.89,5.31,4.91,10.84,3.58,17.06-.86,4,1.11,2.48,3.23,1.15a29.08,29.08,0,0,1-.72,4.34c-1.23,3.64-.77,5.59,3.66,4.11,2.14-.72,2.14.64,2.1,2.14-.18,6.31-3.53,10.14-9.8,10.29-4.23.1-5,1.54-3.18,5.07a3.66,3.66,0,0,1,.17.47c2.58,7.12,3,7.32,9.62,4.07-4.73,8.56-4,19-9.89,27.13-2.35,3.23-6.09,4.64-9.45,6.39-4.29,2.24-7,5.28-7.94,10.16-.64,3.23-2.23,6.26-3.32,9.41-2.24,6.43.3,9.58,7.45,8.7-1.29,2.5-3.55,3.09-5.64,3.85-12,4.4-21.5,12.33-29.72,21.81-5.47,6.32-9.27,13.82-13.56,21-6.67,11.12-9.05,11.77-24,11.42-2.16-.05-4.32-.22-6.48-.38-2.91-.23-4.67,1.09-5.73,3.77a39,39,0,0,1-9.38,14,10.1,10.1,0,0,0-2.53,3.67c-6.38,17.7-8.1,35.29,1.17,52.7,3.77,7.08,10.46,11,16.2,16,20.86,18.21,44.35,31.09,71.83,36.27a218.88,218.88,0,0,1,36.11,9.92C512.62,517.9,528.27,527,540,541.95c9.68,12.34,14.59,26.82,19.11,41.51,2.64,8.6,5.21,17.22,8.14,25.72,1.25,3.62.47,5-3.3,4.88-1.66-.06-3.33,0-5,0L54.06,614c-1.67,0-3.33,0-5,0-2.49,0-3.3-1.24-2.48-3.55,5.21-14.78,8.06-30.28,13.78-44.9,10.15-26,29.31-42.68,54.41-53.45a210.65,210.65,0,0,1,37.52-12.12c26.75-5.93,49.06-19.59,70-36.83,17.59-14.49,19.05-33.06,18-53.28-.57-10.61-3.06-18.67-15.87-19.19-4.09-.17-7.79-2.85-10.4-6.36-1.48-2-3.59-2.11-5.8-2.25-6.37-.39-8.56-2.22-9.52-8.62-.44-2.92-1.09-4.22-4.37-3.23-10.24,3.09-17.8-1.21-23.92-9.1a24.86,24.86,0,0,1-3.08-4.54,20.13,20.13,0,0,0-14.47-11.76,12.82,12.82,0,0,1-9.35-8.43c-3.16-10.9-9.16-21.15-8-33.13C135.87,298.9,135.65,298.88,140.56,300.94Z"/></g></svg>